<svg width="70" height="70" viewBox="0 0 70 70" fill="none" xmlns="http://www.w3.org/2000/svg" xmlns:xlink="http://www.w3.org/1999/xlink">
<path d="M69.147,0.836C68.366,0.055 67.1,0.055 66.319,0.836C65.538,1.617 65.538,2.883 66.319,3.664L69.147,0.836ZM66.336,3.681C67.117,4.462 68.383,4.462 69.164,3.681C69.945,2.9 69.945,1.634 69.164,0.853L66.336,3.681ZM60.734,9.501C60.027,8.652 58.766,8.538 57.917,9.245C57.069,9.952 56.955,11.214 57.662,12.062L60.734,9.501ZM57.679,12.083C58.386,12.931 59.647,13.045 60.496,12.338C61.344,11.631 61.459,10.37 60.751,9.521L57.679,12.083ZM52.081,17.902C51.3,17.121 50.034,17.121 49.253,17.902C48.471,18.683 48.471,19.949 49.252,20.73L52.081,17.902ZM49.269,20.747C50.05,21.529 51.317,21.529 52.098,20.748C52.879,19.967 52.879,18.7 52.098,17.919L49.269,20.747ZM25.364,24.827C24.568,25.593 24.543,26.859 25.308,27.655C26.074,28.452 27.34,28.476 28.136,27.711L25.364,24.827ZM42.289,41.864C41.524,42.66 41.548,43.926 42.345,44.692C43.141,45.457 44.407,45.432 45.173,44.636L42.289,41.864ZM66.319,3.664L66.336,3.681L69.164,0.853L69.147,0.836L66.319,3.664ZM57.662,12.062L57.679,12.083L60.751,9.521L60.734,9.501L57.662,12.062ZM49.252,20.73L49.269,20.747L52.098,17.919L52.081,17.902L49.252,20.73ZM28.136,27.711C30.025,25.895 32.551,24.892 35.172,24.917L35.211,20.918C31.543,20.882 28.008,22.285 25.364,24.827L28.136,27.711ZM35.172,24.917C37.792,24.943 40.298,25.996 42.151,27.849L44.98,25.02C42.386,22.427 38.879,20.954 35.211,20.918L35.172,24.917ZM42.151,27.849C44.004,29.702 45.057,32.208 45.083,34.828L49.082,34.789C49.046,31.121 47.573,27.614 44.98,25.02L42.151,27.849ZM45.083,34.828C45.108,37.449 44.105,39.975 42.289,41.864L45.173,44.636C47.715,41.992 49.118,38.457 49.082,34.789L45.083,34.828Z" fill="#383086"/>
<path d="M13.995,56.005C13.214,55.224 11.947,55.224 11.166,56.005C10.385,56.786 10.385,58.053 11.166,58.834L13.995,56.005ZM52.859,62.657L51.852,60.929L51.852,60.93L52.859,62.657ZM52.48,52.681L51.3,54.296L51.301,54.296L52.48,52.681ZM33.757,36.24L32.342,37.654L32.343,37.654L33.757,36.24ZM17.319,17.523L15.704,18.703L15.705,18.703L17.319,17.523ZM7.343,17.144L5.615,16.137L5.615,16.137L7.343,17.144ZM11.166,58.84C11.947,59.622 13.213,59.622 13.994,58.841C14.776,58.06 14.776,56.794 13.995,56.012L11.166,58.84ZM11.166,58.834C22.744,70.412 40.361,72.259 53.867,64.385L51.852,60.93C39.877,67.911 24.256,66.267 13.995,56.005L11.166,58.834ZM53.867,64.385C55.314,63.542 56.646,62.774 57.59,61.956C58.644,61.042 59.412,59.9 59.493,58.311L55.499,58.106C55.488,58.315 55.453,58.514 54.969,58.934C54.376,59.449 53.436,60.006 51.852,60.929L53.867,64.385ZM59.493,58.311C59.58,56.615 58.753,55.336 57.72,54.295C56.741,53.308 55.306,52.268 53.66,51.066L51.301,54.296C53.061,55.581 54.18,56.406 54.88,57.112C55.527,57.764 55.504,58.006 55.499,58.106L59.493,58.311ZM53.66,51.066C47.461,46.537 41.327,40.978 35.171,34.825L32.343,37.654C38.575,43.883 44.871,49.599 51.3,54.296L53.66,51.066ZM35.171,34.826C29.022,28.673 23.463,22.539 18.934,16.343L15.705,18.703C20.401,25.129 26.117,31.425 32.342,37.654L35.171,34.826ZM18.935,16.344C17.732,14.697 16.692,13.262 15.705,12.283C14.664,11.251 13.385,10.423 11.689,10.51L11.894,14.505C11.994,14.5 12.236,14.477 12.888,15.123C13.594,15.824 14.419,16.943 15.704,18.703L18.935,16.344ZM11.689,10.51C10.1,10.592 8.958,11.36 8.044,12.413C7.226,13.357 6.458,14.69 5.615,16.137L9.071,18.151C9.994,16.567 10.552,15.628 11.066,15.034C11.486,14.551 11.685,14.516 11.894,14.505L11.689,10.51ZM5.615,16.137C-2.259,29.646 -0.411,47.259 11.166,58.84L13.995,56.012C3.733,45.747 2.089,30.13 9.071,18.151L5.615,16.137Z" fill="#383086"/>
</svg>
