<svg width="54" height="68" viewBox="0 0 54 68" fill="none" xmlns="http://www.w3.org/2000/svg" xmlns:xlink="http://www.w3.org/1999/xlink">
<path d="M47,31.251C47,30.146 46.105,29.251 45,29.251C43.895,29.251 43,30.146 43,31.251L47,31.251ZM43,19.833C43,20.937 43.895,21.833 45,21.833C46.105,21.833 47,20.937 47,19.833L43,19.833ZM43,31.251L43,48.166L47,48.166L47,31.251L43,31.251ZM43,48.166C43,50.952 42.86,53.11 42.543,54.789C42.226,56.465 41.755,57.536 41.184,58.256C40.119,59.597 38.184,60.333 33.75,60.333L33.75,64.333C38.316,64.333 42.006,63.652 44.316,60.743C45.433,59.337 46.087,57.576 46.473,55.532C46.859,53.493 47,51.047 47,48.166L43,48.166ZM33.75,60.333L20.25,60.333L20.25,64.333L33.75,64.333L33.75,60.333ZM20.25,60.333C15.816,60.333 13.881,59.597 12.816,58.256C12.245,57.536 11.774,56.465 11.457,54.789C11.14,53.11 11,50.952 11,48.166L7,48.166C7,51.047 7.141,53.493 7.527,55.532C7.913,57.576 8.567,59.337 9.684,60.743C11.994,63.652 15.684,64.333 20.25,64.333L20.25,60.333ZM11,48.166L11,19.833L7,19.833L7,48.166L11,48.166ZM11,19.833C11,17.047 11.14,14.888 11.457,13.209C11.774,11.534 12.245,10.462 12.816,9.743C13.881,8.402 15.816,7.666 20.25,7.666L20.25,3.666C15.684,3.666 11.994,4.347 9.684,7.256C8.567,8.661 7.913,10.423 7.527,12.466C7.141,14.506 7,16.952 7,19.833L11,19.833ZM20.25,7.666L33.75,7.666L33.75,3.666L20.25,3.666L20.25,7.666ZM33.75,7.666C38.184,7.666 40.119,8.402 41.184,9.743C41.755,10.462 42.226,11.534 42.543,13.209C42.86,14.888 43,17.047 43,19.833L47,19.833C47,16.952 46.859,14.506 46.473,12.466C46.087,10.423 45.433,8.661 44.316,7.256C42.006,4.347 38.316,3.666 33.75,3.666L33.75,7.666Z" fill="#383086"/>
<line x1="22.5" y1="14.084" x2="31.5" y2="14.084" stroke="#383086" stroke-width="1.5" stroke-miterlimit="3.999327" stroke-linecap="round" stroke-linejoin="round"/>
<path d="M28.987,49.726C28.987,51.664 27.793,52.617 26.999,52.617L26.999,55.617C30.058,55.617 31.987,52.639 31.987,49.726L28.987,49.726ZM26.999,52.617C26.206,52.617 25.012,51.664 25.012,49.726L22.012,49.726C22.012,52.639 23.941,55.617 26.999,55.617L26.999,52.617ZM25.012,49.726C25.012,47.788 26.206,46.834 26.999,46.834L26.999,43.834C23.941,43.834 22.012,46.813 22.012,49.726L25.012,49.726ZM26.999,46.834C27.793,46.834 28.987,47.788 28.987,49.726L31.987,49.726C31.987,46.813 30.058,43.834 26.999,43.834L26.999,46.834Z" fill="#383086"/>
</svg>
