<svg width="62" height="62" viewBox="0 0 62 62" fill="none" xmlns="http://www.w3.org/2000/svg" xmlns:xlink="http://www.w3.org/1999/xlink">
<path d="M56.635,41.828C57.065,40.811 56.589,39.637 55.572,39.207C54.554,38.777 53.381,39.253 52.951,40.27L56.635,41.828ZM21.467,9.144C22.479,8.702 22.942,7.523 22.5,6.511C22.058,5.498 20.88,5.036 19.867,5.477L21.467,9.144ZM52.951,40.27C51.435,43.856 49.063,47.015 46.044,49.473L48.569,52.575C52.095,49.705 54.864,46.015 56.635,41.828L52.951,40.27ZM46.044,49.473C43.024,51.93 39.449,53.611 35.63,54.367L36.407,58.291C40.867,57.407 45.042,55.445 48.569,52.575L46.044,49.473ZM35.63,54.367C31.811,55.123 27.865,54.933 24.137,53.812L22.985,57.642C27.339,58.951 31.947,59.174 36.407,58.291L35.63,54.367ZM24.137,53.812C20.408,52.691 17.012,50.673 14.243,47.936L11.431,50.781C14.664,53.977 18.631,56.333 22.985,57.642L24.137,53.812ZM14.243,47.936C11.475,45.199 9.419,41.826 8.255,38.111L4.438,39.306C5.797,43.645 8.198,47.584 11.431,50.781L14.243,47.936ZM8.255,38.111C7.092,34.395 6.856,30.452 7.569,26.624L3.636,25.892C2.804,30.362 3.079,34.967 4.438,39.306L8.255,38.111ZM7.569,26.624C8.281,22.797 9.921,19.203 12.344,16.155L9.213,13.666C6.383,17.225 4.469,21.423 3.636,25.892L7.569,26.624ZM12.344,16.155C14.766,13.108 17.899,10.701 21.467,9.144L19.867,5.477C15.7,7.296 12.042,10.107 9.213,13.666L12.344,16.155Z" fill="#383086"/>
<path d="M56.833,30.999L56.833,32.999C57.938,32.999 58.833,32.104 58.833,30.999L56.833,30.999ZM31,5.166L31,3.166C30.47,3.166 29.961,3.377 29.586,3.752C29.211,4.127 29,4.636 29,5.166L31,5.166ZM31,30.999L29,30.999C29,32.104 29.895,32.999 31,32.999L31,30.999ZM58.833,30.999C58.833,27.344 58.113,23.725 56.715,20.348L53.019,21.879C54.217,24.77 54.833,27.869 54.833,30.999L58.833,30.999ZM56.715,20.348C55.316,16.971 53.266,13.903 50.681,11.318L47.853,14.147C50.066,16.36 51.821,18.987 53.019,21.879L56.715,20.348ZM50.681,11.318C48.097,8.734 45.028,6.683 41.651,5.285L40.121,8.98C43.012,10.178 45.64,11.934 47.853,14.147L50.681,11.318ZM41.651,5.285C38.274,3.886 34.655,3.166 31,3.166L31,7.166C34.13,7.166 37.229,7.782 40.121,8.98L41.651,5.285ZM29,5.166L29,30.999L33,30.999L33,5.166L29,5.166ZM31,32.999L56.833,32.999L56.833,28.999L31,28.999L31,32.999Z" fill="#383086"/>
</svg>
