<svg width="148" height="148" viewBox="0 0 148 148" fill="none" xmlns="http://www.w3.org/2000/svg" xmlns:xlink="http://www.w3.org/1999/xlink">
<g filter="url(#filter1_148)">
<path d="M84.789,146.667L84.789,95.113L101.877,95.113L105.125,73.781L84.789,73.781L84.789,59.94C84.789,54.109 87.625,48.413 96.741,48.413L105.991,48.413L105.991,30.255C105.991,30.255 97.597,28.813 89.574,28.813C72.826,28.813 61.874,39.023 61.874,57.522L61.874,73.781L43.249,73.781L43.249,95.113L61.874,95.113L61.874,146.666C26.816,141.131 0,110.607 0,73.781C0,33.033 32.832,0 73.333,0C113.834,0 146.667,33.033 146.667,73.781C146.667,110.608 119.848,141.133 84.789,146.667Z" fill="#383086"/>
</g>
<defs>
<filter id="filter1_148" x="-4" y="-4" width="81.333328" height="81.333328" filterUnits="userSpaceOnUse" color-interpolation-filters="sRGB">
<feFlood flood-opacity="0" result="BackgroundImageFix"/>
<feColorMatrix in="SourceAlpha" type="matrix" values="0 0 0 0 0 0 0 0 0 0 0 0 0 0 0 0 0 0 127 0" result="hardAlpha"/>
<feMorphology radius="0" operator="dilate" in="SourceAlpha" result="0dropshadow"/>
<feOffset dx="4" dy="4"/>
<feGaussianBlur stdDeviation="2"/>
<feComposite in2="hardAlpha" operator="out"/>
<feColorMatrix type="matrix" values="0 0 0 0 0 0 0 0 0 0 0 0 0 0 0 0 0 0 0.25 0"/>
<feBlend mode="normal" in2="BackgroundImageFix" result="0dropshadow"/>
<feBlend mode="normal" in="SourceGraphic" in2="0dropshadow" result="shape"/>
</filter>
</defs>
</svg>
