<svg width="42" height="54" viewBox="0 0 42 54" fill="none" xmlns="http://www.w3.org/2000/svg" xmlns:xlink="http://www.w3.org/1999/xlink">
<path d="M-1,2C-1,0.343 0.343,-1 2,-1C3.657,-1 5,0.343 5,2L5,50C5,51.657 3.657,53 2,53C0.343,53 -1,51.657 -1,50L-1,2Z" fill="#383086"/>
<path d="M11,20C11,18.343 12.343,17 14,17C15.657,17 17,18.343 17,20L17,50C17,51.657 15.657,53 14,53C12.343,53 11,51.657 11,50L11,20Z" fill="#383086"/>
<path d="M23,32C23,30.343 24.343,29 26,29C27.657,29 29,30.343 29,32L29,50C29,51.657 27.657,53 26,53C24.343,53 23,51.657 23,50L23,32Z" fill="#383086"/>
<path d="M35,8C35,6.343 36.343,5 38,5C39.657,5 41,6.343 41,8L41,50C41,51.657 39.657,53 38,53C36.343,53 35,51.657 35,50L35,8Z" fill="#383086"/>
</svg>
