<svg width="82" height="88" viewBox="0 0 82 88" fill="none" xmlns="http://www.w3.org/2000/svg" xmlns:xlink="http://www.w3.org/1999/xlink">
<path d="M41,20.956C46.879,20.956 51.645,16.265 51.645,10.478C51.645,4.691 46.879,0 41,0C35.121,0 30.355,4.691 30.355,10.478C30.355,16.265 35.121,20.956 41,20.956Z" fill="#FFFFFF"/>
<path d="M77.601,23.262L40.929,25.787L4.399,23.262C3.232,23.262 2.113,23.718 1.288,24.53C0.463,25.342 0,26.444 0,27.592C0,29.503 0.41,32.077 4.399,32.843L26.923,37.015L26.923,82.804C26.923,84.182 27.479,85.504 28.469,86.478C29.459,87.453 30.802,88 32.202,88C33.602,88 34.945,87.453 35.935,86.478C36.925,85.504 37.481,84.182 37.481,82.804L39.713,57.551L42.345,57.551L44.167,82.804C44.167,84.182 44.723,85.504 45.713,86.478C46.703,87.453 48.046,88 49.446,88C50.846,88 52.189,87.453 53.179,86.478C54.169,85.504 54.725,84.182 54.725,82.804L54.725,37.015L77.601,32.843C81.183,31.924 82,29.503 82,27.592C82,26.444 81.537,25.342 80.712,24.53C79.886,23.718 78.768,23.262 77.601,23.262Z" fill="#FFFFFF"/>
</svg>
