<svg width="118" height="118" viewBox="0 0 118 118" fill="none" xmlns="http://www.w3.org/2000/svg" xmlns:xlink="http://www.w3.org/1999/xlink">
<path d="M42.397,-0.5C35.93,-0.495 30.695,4.743 30.7,11.198C30.695,17.652 35.935,22.89 42.402,22.895L54.104,22.895L54.104,11.202C54.109,4.748 48.87,-0.49 42.397,-0.5C42.402,-0.5 42.402,-0.5 42.397,-0.5ZM42.397,30.7L11.202,30.7C4.734,30.705 -0.505,35.943 -0.5,42.398C-0.51,48.852 4.73,54.09 11.197,54.1L42.397,54.1C48.865,54.095 54.104,48.857 54.099,42.402C54.104,35.943 48.865,30.705 42.397,30.7Z" clip-rule="evenodd" fill-rule="evenodd" fill="#383086"/>
<path d="M116.502,42.398C116.507,35.943 111.267,30.705 104.8,30.7C98.332,30.705 93.093,35.943 93.098,42.398L93.098,54.1L104.8,54.1C111.267,54.095 116.507,48.857 116.502,42.398ZM85.301,42.398L85.301,11.198C85.306,4.748 80.072,-0.49 73.604,-0.5C67.136,-0.495 61.897,4.743 61.902,11.198L61.902,42.398C61.892,48.852 67.132,54.09 73.599,54.1C80.067,54.095 85.306,48.857 85.301,42.398Z" clip-rule="evenodd" fill-rule="evenodd" fill="#383086"/>
<path d="M73.598,116.5C80.066,116.495 85.305,111.257 85.3,104.802C85.305,98.348 80.066,93.11 73.598,93.105L61.896,93.105L61.896,104.802C61.892,111.252 67.131,116.49 73.598,116.5ZM73.598,85.295L104.799,85.295C111.266,85.29 116.505,80.052 116.5,73.598C116.51,67.143 111.271,61.905 104.803,61.895L73.603,61.895C67.135,61.9 61.896,67.138 61.901,73.593C61.896,80.052 67.131,85.29 73.598,85.295Z" clip-rule="evenodd" fill-rule="evenodd" fill="#383086"/>
<path d="M-0.5,73.597C-0.505,80.052 4.734,85.29 11.202,85.295C17.67,85.29 22.909,80.052 22.904,73.597L22.904,61.9L11.202,61.9C4.734,61.904 -0.505,67.143 -0.5,73.597ZM30.701,73.597L30.701,104.798C30.691,111.252 35.93,116.49 42.398,116.5C48.865,116.495 54.104,111.257 54.1,104.802L54.1,73.607C54.109,67.152 48.87,61.914 42.402,61.904C35.93,61.904 30.696,67.143 30.701,73.597Z" clip-rule="evenodd" fill-rule="evenodd" fill="#383086"/>
</svg>
