<svg width="3164" height="1006" viewBox="0 0 3164 1006" fill="none" xmlns="http://www.w3.org/2000/svg" xmlns:xlink="http://www.w3.org/1999/xlink">
<path d="M0,1006L105.467,922.166C107.921,920.216 110.433,918.22 113,916.18C220.752,830.552 426.776,667.74 632.8,544.916C843.734,419.166 1054.666,366.62 1265.6,345.662C1476.534,324.704 1687.466,335.334 1898.4,377.25C2109.34,419.166 2320.26,461.084 2531.2,523.958C2738.58,585.774 3047.9,714.252 3158.5,758.398C3161.2,759.48 3164,757.42 3164,754.5L3164,754.5L3164,623.094L3164,576.1L3164,62C3164,27.758 3136.24,0 3102,0L3058.54,0C2953.06,0 2742.14,0 2531.2,0C2320.26,0 2109.34,0 1898.4,0C1687.466,0 1476.534,0 1265.6,0C1054.666,0 843.734,0 632.8,0C421.866,0 210.934,0 105.467,0L62,0C27.758,0 0,27.758 0,62L0,856.318L0,1006Z" clip-rule="evenodd" fill-rule="evenodd" fill="#383086"/>
</svg>
