<svg width="3164" height="836" viewBox="0 0 3164 836" fill="none" xmlns="http://www.w3.org/2000/svg" xmlns:xlink="http://www.w3.org/1999/xlink">
<path d="M0,836L105.467,766.334C107.921,764.712 110.433,763.052 113,761.358C220.752,690.2 426.776,554.902 632.8,452.834C843.734,348.334 1054.666,304.666 1265.6,287.25C1476.534,269.834 1687.466,278.666 1898.4,313.5C2109.34,348.334 2320.26,383.166 2531.2,435.416C2739.12,486.92 3049.5,594.106 3159.34,630.522C3161.72,631.306 3164,629.494 3164,627L3164,627L3164,517.8L3164,478.748L3164,62C3164,27.758 3136.24,0 3102,0L3058.54,0C2953.06,0 2742.14,0 2531.2,0C2320.26,0 2109.34,0 1898.4,0C1687.466,0 1476.534,0 1265.6,0C1054.666,0 843.734,0 632.8,0C421.866,0 210.934,0 105.467,0L62,0C27.758,0 0,27.758 0,62L0,711.612L0,836Z" clip-rule="evenodd" fill-rule="evenodd" fill="#383086"/>
</svg>
