<svg width="68" height="68" viewBox="0 0 68 68" fill="none" xmlns="http://www.w3.org/2000/svg" xmlns:xlink="http://www.w3.org/1999/xlink">
<path d="M40.036,32.131C41.141,27.484 37.089,23.432 32.443,24.537C30.261,25.075 28.476,26.861 27.938,29.042C26.833,33.689 30.884,37.741 35.531,36.636C37.741,36.097 39.526,34.312 40.036,32.131Z" fill="#383086" stroke="#383086" stroke-width="2" stroke-miterlimit="3.999327" stroke-linecap="round" stroke-linejoin="round"/>
<path d="M49.663,47.244C48.856,47.999 48.814,49.264 49.569,50.071C50.323,50.877 51.589,50.919 52.396,50.165L49.663,47.244ZM15.699,50.258C16.51,51.008 17.776,50.958 18.526,50.147C19.276,49.336 19.226,48.071 18.415,47.321L15.699,50.258ZM52.396,50.165C57.626,45.27 60.906,38.317 60.906,30.571L56.906,30.571C56.906,37.161 54.122,43.072 49.663,47.244L52.396,50.165ZM60.906,30.571C60.906,15.695 48.846,3.666 34.001,3.666L34.001,7.666C46.639,7.666 56.906,17.907 56.906,30.571L60.906,30.571ZM34.001,3.666C19.154,3.666 7.096,15.725 7.096,30.571L11.096,30.571C11.096,17.934 21.364,7.666 34.001,7.666L34.001,3.666ZM7.096,30.571C7.096,38.346 10.404,45.36 15.699,50.258L18.415,47.321C13.907,43.151 11.096,37.189 11.096,30.571L7.096,30.571Z" fill="#383086"/>
<path d="M21.209,42.595C21.965,43.4 23.231,43.44 24.036,42.684C24.841,41.928 24.881,40.662 24.125,39.857L21.209,42.595ZM43.869,39.864C43.117,40.674 43.163,41.939 43.972,42.691C44.781,43.443 46.047,43.397 46.799,42.587L43.869,39.864ZM24.125,39.857C21.85,37.434 20.445,34.177 20.445,30.573L16.445,30.573C16.445,35.241 18.271,39.465 21.209,42.595L24.125,39.857ZM20.445,30.573C20.445,23.092 26.52,17.018 34,17.018L34,13.018C24.311,13.018 16.445,20.883 16.445,30.573L20.445,30.573ZM34,17.018C41.481,17.018 47.555,23.092 47.555,30.573L51.555,30.573C51.555,20.883 43.69,13.018 34,13.018L34,17.018ZM47.555,30.573C47.555,34.172 46.154,37.405 43.869,39.864L46.799,42.587C49.726,39.437 51.555,35.247 51.555,30.573L47.555,30.573Z" fill="#383086"/>
<path d="M29.183,47.203L25.103,52.275C21.873,56.326 24.735,62.305 29.92,62.305L38.052,62.305C43.237,62.305 46.127,56.298 42.868,52.275L38.788,47.203C36.352,44.115 31.648,44.115 29.183,47.203Z" fill="#383086" stroke="#383086" stroke-width="2" stroke-miterlimit="3.999327" stroke-linecap="round" stroke-linejoin="round"/>
</svg>
