<svg width="2086" height="176" viewBox="0 0 2086 176" fill="none" xmlns="http://www.w3.org/2000/svg" xmlns:xlink="http://www.w3.org/1999/xlink">
<g filter="url(#filter1_988)">
<rect  x="20" y="20" width="2046" height="136" rx="28" fill="#D4DBF5"/>
<path d="M1975,63C1975,53.611 1982.611,46 1992,46C2001.389,46 2009,53.611 2009,63L2009,84.25C2009,93.639 2001.389,101.25 1992,101.25C1982.611,101.25 1975,93.639 1975,84.25L1975,63ZM1992,54.5C1987.306,54.5 1983.5,58.306 1983.5,63L1983.5,84.25C1983.5,88.944 1987.306,92.75 1992,92.75C1996.694,92.75 2000.5,88.944 2000.5,84.25L2000.5,63C2000.5,58.306 1996.694,54.5 1992,54.5Z" clip-rule="evenodd" fill-rule="evenodd" fill="#3A3085"/>
<path d="M1962.25,80C1964.597,80 1966.5,81.903 1966.5,84.25C1966.5,98.333 1977.917,109.75 1992,109.75C2006.083,109.75 2017.5,98.333 2017.5,84.25C2017.5,81.903 2019.403,80 2021.75,80C2024.097,80 2026,81.903 2026,84.25C2026,101.588 2013.022,115.896 1996.25,117.987L1996.25,126.75C1996.25,129.097 1994.347,131 1992,131C1989.653,131 1987.75,129.097 1987.75,126.75L1987.75,117.987C1970.978,115.896 1958,101.588 1958,84.25C1958,81.903 1959.903,80 1962.25,80Z" fill="#3A3085"/>
</g>
<defs>
<filter id="filter1_988" x="-6.5" y="-6.5" width="1056.5" height="101" filterUnits="userSpaceOnUse" color-interpolation-filters="sRGB">
<feFlood flood-opacity="0" result="BackgroundImageFix"/>
<feColorMatrix in="SourceAlpha" type="matrix" values="0 0 0 0 0 0 0 0 0 0 0 0 0 0 0 0 0 0 127 0" result="hardAlpha"/>
<feMorphology radius="0" operator="dilate" in="SourceAlpha" result="0dropshadow"/>
<feOffset dx="7" dy="6"/>
<feGaussianBlur stdDeviation="3.25"/>
<feComposite in2="hardAlpha" operator="out"/>
<feColorMatrix type="matrix" values="0 0 0 0 0 0 0 0 0 0 0 0 0 0 0 0 0 0 0.25 0"/>
<feBlend mode="normal" in2="BackgroundImageFix" result="0dropshadow"/>
<feBlend mode="normal" in="SourceGraphic" in2="0dropshadow" result="shape"/>
</filter>
</defs>
</svg>
