<svg width="420" height="170" viewBox="0 0 420 170" fill="none" xmlns="http://www.w3.org/2000/svg" xmlns:xlink="http://www.w3.org/1999/xlink">
<rect  x="0" y="18" width="320" height="140" rx="24" fill="#EF7010"/>
<circle cx="321" cy="85" r="85" fill="#F1F4FD"/>
<path d="M339.671,82.069L307.656,59.28L307.656,104.858L339.671,82.069ZM305.732,116.509L349.853,85.659C352.417,83.951 352.417,80.187 349.853,78.479L305.732,47.628C302.862,45.717 299.018,47.772 299.018,51.218L299.018,112.919C299.018,116.365 302.862,118.421 305.732,116.509Z" clip-rule="evenodd" fill-rule="evenodd" fill="#FFFFFF"/>
<path d="M347.38,82.069L310.742,58.621L304.88,58.621L304.88,112.845L347.38,82.069Z" fill="#FFFFFF"/>
<circle cx="335" cy="85" r="85" fill="#1E3489"/>
<path d="M353.671,82.069L321.656,59.28L321.656,104.858L353.671,82.069ZM319.732,116.509L363.853,85.659C366.417,83.951 366.417,80.187 363.853,78.479L319.732,47.628C316.862,45.717 313.018,47.772 313.018,51.218L313.018,112.919C313.018,116.365 316.862,118.421 319.732,116.509Z" clip-rule="evenodd" fill-rule="evenodd" fill="#FFFFFF"/>
<path d="M361.38,82.069L324.742,58.621L318.88,58.621L318.88,112.845L361.38,82.069Z" fill="#FFFFFF"/>
</svg>
